<svg xmlns="http://www.w3.org/2000/svg" width="159.67mm" height="61.29mm" viewBox="0 0 452.6 173.73"><defs><style>.a{fill:#fff;}.b{fill:#d82533;}</style></defs><title>title</title><path class="a" d="M3.07,119.21a37.49,37.49,0,0,0,12.16,9.36,34.7,34.7,0,0,0,15.5,3.5,32.1,32.1,0,0,0,10.06-1.47,23.29,23.29,0,0,0,7.61-4,17.94,17.94,0,0,0,4.89-6.22,18.36,18.36,0,0,0,1.75-8.1,19.07,19.07,0,0,0-1.4-7.75A17.81,17.81,0,0,0,49.94,99a23.4,23.4,0,0,0-5.38-4Q41.49,93.37,38,91.84L23.75,85.41q-2.94-1.26-6.22-3.07a31,31,0,0,1-6.07-4.4,21.1,21.1,0,0,1-4.62-6.29A20,20,0,0,1,5,62.78a20.2,20.2,0,0,1,2-8.94,20.87,20.87,0,0,1,5.44-7,25.58,25.58,0,0,1,8.24-4.54A32.16,32.16,0,0,1,31,40.71,31.67,31.67,0,0,1,45.75,44,38,38,0,0,1,56.16,51.6l-2.8,3.08a30.52,30.52,0,0,0-9.64-7.13A29.24,29.24,0,0,0,31,44.9q-9.63,0-15.57,4.82A15.63,15.63,0,0,0,9.5,62.5a15.24,15.24,0,0,0,1.61,7.33A18.29,18.29,0,0,0,15.16,75a25.59,25.59,0,0,0,5.24,3.63q2.79,1.47,5.3,2.59L40,87.64c2.52,1.12,5,2.36,7.34,3.71a27.86,27.86,0,0,1,6.28,4.82,20.86,20.86,0,0,1,4.33,6.63A23.65,23.65,0,0,1,59.51,112a22.24,22.24,0,0,1-2.1,9.71,23.37,23.37,0,0,1-5.86,7.68,27,27,0,0,1-9.08,5.1,36.1,36.1,0,0,1-11.74,1.82,38.47,38.47,0,0,1-17.88-3.91A42.83,42.83,0,0,1,0,122.29Z"/><path class="a" d="M69.85,67.81h4.74l15.93,43.3Q92.2,116,94,120.82t3.49,9.29h.56q1.68-4.47,3.5-9.29t3.49-9.71L121,67.81h4.47L100.3,134.58h-5Z"/><path class="a" d="M145.56,50.77a4.7,4.7,0,0,1-3.35-1.33,4.49,4.49,0,0,1-1.4-3.42,4.41,4.41,0,0,1,1.4-3.57,5.35,5.35,0,0,1,6.7,0,4.44,4.44,0,0,1,1.4,3.57,4.53,4.53,0,0,1-1.4,3.42A4.72,4.72,0,0,1,145.56,50.77Zm-2.24,17h4.19v66.77h-4.19Z"/><path class="a" d="M167.35,132.35l41.07-60.63h-36.6V67.81H214V70l-41.07,60.63H215.4v3.91H167.35Z"/><path class="a" d="M225.46,132.35l41.07-60.63h-36.6V67.81h42.19V70l-41.07,60.63h42.47v3.91H225.46Z"/><path class="a" d="M286.09,101.33a41.71,41.71,0,0,1,2.44-14.66A35.28,35.28,0,0,1,295,75.56a28.05,28.05,0,0,1,9.15-7,24.86,24.86,0,0,1,10.76-2.45q11.58,0,18.36,7.89T340,96.86V99a10.36,10.36,0,0,1-.28,2.3H290.56a39.13,39.13,0,0,0,1.88,12.37,31,31,0,0,0,5.31,9.85A23.78,23.78,0,0,0,306,130a24.71,24.71,0,0,0,10.82,2.31,28.86,28.86,0,0,0,10.2-1.68,33.66,33.66,0,0,0,8.24-4.47l2,3.63a61.91,61.91,0,0,1-8.46,4.4q-4.68,2-12.22,2a29.59,29.59,0,0,1-11.8-2.38A28.21,28.21,0,0,1,295,127a32.79,32.79,0,0,1-6.57-11A42.19,42.19,0,0,1,286.09,101.33Zm49.73-3.63q0-14-5.73-20.81A18.86,18.86,0,0,0,314.87,70a20.35,20.35,0,0,0-8.67,2,23.7,23.7,0,0,0-7.47,5.52,29.89,29.89,0,0,0-5.45,8.66,37.73,37.73,0,0,0-2.72,11.52Z"/><path class="a" d="M398.68,101.33a41.7,41.7,0,0,1,2.45-14.66,35.45,35.45,0,0,1,6.42-11.11,28.26,28.26,0,0,1,9.15-7,24.89,24.89,0,0,1,10.76-2.45q11.6,0,18.37,7.89t6.77,22.84V99a10.93,10.93,0,0,1-.27,2.3H403.15A38.85,38.85,0,0,0,405,113.7a30.77,30.77,0,0,0,5.31,9.85,23.84,23.84,0,0,0,8.24,6.49,24.72,24.72,0,0,0,10.83,2.31,28.84,28.84,0,0,0,10.19-1.68,33.9,33.9,0,0,0,8.25-4.47l1.95,3.63a61.19,61.19,0,0,1-8.45,4.4q-4.68,2-12.22,2a29.63,29.63,0,0,1-11.81-2.38,28.3,28.3,0,0,1-9.71-6.91,32.61,32.61,0,0,1-6.56-11A42,42,0,0,1,398.68,101.33Zm49.73-3.63q0-14-5.72-20.81A18.88,18.88,0,0,0,427.46,70a20.31,20.31,0,0,0-8.66,2,23.48,23.48,0,0,0-7.47,5.52,29.68,29.68,0,0,0-5.45,8.66,37.44,37.44,0,0,0-2.73,11.52Z"/><path class="a" d="M361.52,67.81h3.63l.56,12.57H366a35.81,35.81,0,0,1,8.1-10.2A16.32,16.32,0,0,1,385,66.13a18.44,18.44,0,0,1,3.21.28,12.15,12.15,0,0,1,3.22,1.12l-1.12,3.91a14.33,14.33,0,0,0-2.8-.91,17.46,17.46,0,0,0-3.07-.21q-4.6,0-9.64,4t-9.08,13.9v46.38h-4.19Z"/><rect class="b" y="171.73" width="452.6" height="2"/><rect class="b" y="6.9" width="67.52" height="2"/><rect class="b" x="385.08" y="6.9" width="67.52" height="2"/><path class="a" d="M85.8,12.48a5.48,5.48,0,0,0,1.52,1,4.09,4.09,0,0,0,1.71.39,2.57,2.57,0,0,0,1.61-.44,1.4,1.4,0,0,0,.55-1.16,1.38,1.38,0,0,0-.14-.64,1.5,1.5,0,0,0-.4-.47,3.78,3.78,0,0,0-.61-.37c-.23-.11-.49-.23-.77-.34l-1.71-.74a6.56,6.56,0,0,1-.9-.48,4.06,4.06,0,0,1-.81-.68,3.4,3.4,0,0,1-.58-.93,3.32,3.32,0,0,1-.21-1.22A3.1,3.1,0,0,1,85.37,5a3.54,3.54,0,0,1,.86-1.11,4.23,4.23,0,0,1,1.32-.74,5.1,5.1,0,0,1,1.68-.26A5.45,5.45,0,0,1,93.05,4.5L91.93,5.91a5.4,5.4,0,0,0-1.25-.78,3.54,3.54,0,0,0-1.45-.28,2.41,2.41,0,0,0-1.42.38,1.25,1.25,0,0,0-.53,1.08,1.15,1.15,0,0,0,.16.62,1.56,1.56,0,0,0,.44.45,3.15,3.15,0,0,0,.63.36l.74.32,1.69.7a5.66,5.66,0,0,1,1,.53,3.57,3.57,0,0,1,.79.7,3,3,0,0,1,.52.93,3.4,3.4,0,0,1,.19,1.2,3.46,3.46,0,0,1-.3,1.43,3.54,3.54,0,0,1-.88,1.17,4.38,4.38,0,0,1-1.41.79,5.47,5.47,0,0,1-1.87.3,6.34,6.34,0,0,1-2.43-.48A6.24,6.24,0,0,1,84.5,14Z"/><path class="a" d="M105.35,9.41a8,8,0,0,1,.44-2.73,5.92,5.92,0,0,1,1.23-2,5.24,5.24,0,0,1,1.82-1.28,5.8,5.8,0,0,1,2.24-.43,4.33,4.33,0,0,1,2,.47,5.6,5.6,0,0,1,1.49,1.1l-1.24,1.37a3.73,3.73,0,0,0-1-.75,2.83,2.83,0,0,0-1.27-.27,3.11,3.11,0,0,0-1.41.31,3.25,3.25,0,0,0-1.1.89,4.23,4.23,0,0,0-.73,1.42,6.39,6.39,0,0,0-.25,1.88,5.32,5.32,0,0,0,.92,3.33,3,3,0,0,0,2.5,1.21,3.16,3.16,0,0,0,1.45-.32,4.09,4.09,0,0,0,1.15-.92L114.87,14a5.36,5.36,0,0,1-1.73,1.34,4.94,4.94,0,0,1-2.15.47,5.77,5.77,0,0,1-2.22-.42A5,5,0,0,1,107,14.16a5.86,5.86,0,0,1-1.2-2A8,8,0,0,1,105.35,9.41Z"/><path class="a" d="M131.41,15.81a5.37,5.37,0,0,1-2.22-.45,4.88,4.88,0,0,1-1.73-1.29,6.07,6.07,0,0,1-1.12-2,8.5,8.5,0,0,1-.4-2.72,8.31,8.31,0,0,1,.4-2.69,5.78,5.78,0,0,1,1.12-2,4.8,4.8,0,0,1,1.73-1.26,5.53,5.53,0,0,1,2.22-.43,5.61,5.61,0,0,1,2.23.43,4.8,4.8,0,0,1,1.73,1.26,5.66,5.66,0,0,1,1.14,2,8.6,8.6,0,0,1,.39,2.69,8.8,8.8,0,0,1-.39,2.72,5.94,5.94,0,0,1-1.14,2,4.88,4.88,0,0,1-1.73,1.29A5.45,5.45,0,0,1,131.41,15.81Zm0-1.92a2.75,2.75,0,0,0,1.33-.32,3,3,0,0,0,1-.93,4.66,4.66,0,0,0,.65-1.44,7.32,7.32,0,0,0,.22-1.89A5.46,5.46,0,0,0,133.76,6a2.92,2.92,0,0,0-4.69,0,5.46,5.46,0,0,0-.87,3.28,7.3,7.3,0,0,0,.23,1.89,4.44,4.44,0,0,0,.65,1.44,3,3,0,0,0,1,.93A2.81,2.81,0,0,0,131.41,13.89Z"/><path class="a" d="M149.67,3.15h4.18a9.16,9.16,0,0,1,1.89.19,4,4,0,0,1,1.49.65,3.12,3.12,0,0,1,1,1.19A4.08,4.08,0,0,1,158.58,7a4.14,4.14,0,0,1-.36,1.79,3.52,3.52,0,0,1-1,1.26,4.18,4.18,0,0,1-1.51.74,6.94,6.94,0,0,1-1.87.24h-2v4.56h-2.21Zm4,6.1c1.83,0,2.74-.75,2.74-2.26a1.79,1.79,0,0,0-.69-1.62,3.75,3.75,0,0,0-2-.45h-1.8V9.25Z"/><path class="a" d="M178,15.58l-2.68-4.86h-1.9v4.86h-2.2V3.15h4.2a8.5,8.5,0,0,1,1.8.19,4.24,4.24,0,0,1,1.45.62,3.12,3.12,0,0,1,1,1.13A4,4,0,0,1,180,6.84a3.66,3.66,0,0,1-.68,2.3,3.67,3.67,0,0,1-1.79,1.25l3,5.19ZM173.4,9h1.77a3.12,3.12,0,0,0,2-.53,1.92,1.92,0,0,0,.67-1.6,1.62,1.62,0,0,0-.67-1.5,3.72,3.72,0,0,0-2-.42H173.4Z"/><path class="a" d="M192.86,3.15h2.2V15.58h-2.2Z"/><path class="a" d="M222.67,3.15h2.2V13.72H230v1.86h-7.37Z"/><path class="a" d="M242.49,3.15H250V5h-5.28V8.19h4.47v1.86h-4.47v3.67h5.47v1.86h-7.67Z"/><path class="a" d="M276.52,9.41A7.74,7.74,0,0,1,277,6.68a5.92,5.92,0,0,1,1.23-2A5.15,5.15,0,0,1,280,3.36a5.8,5.8,0,0,1,2.24-.43,4.33,4.33,0,0,1,2.05.47,5.6,5.6,0,0,1,1.49,1.1l-1.24,1.37a3.73,3.73,0,0,0-1-.75,2.83,2.83,0,0,0-1.27-.27,3.11,3.11,0,0,0-1.41.31,3.16,3.16,0,0,0-1.1.89A4.06,4.06,0,0,0,279,7.47a6.39,6.39,0,0,0-.25,1.88,5.32,5.32,0,0,0,.92,3.33,3,3,0,0,0,2.5,1.21,3.16,3.16,0,0,0,1.45-.32,4.23,4.23,0,0,0,1.15-.92L286,14a5.22,5.22,0,0,1-1.72,1.34,4.94,4.94,0,0,1-2.15.47,5.77,5.77,0,0,1-2.22-.42,5,5,0,0,1-1.79-1.23,5.86,5.86,0,0,1-1.2-2A8,8,0,0,1,276.52,9.41Z"/><path class="a" d="M298.38,3.15h2.21V15.58h-2.21Z"/><path class="a" d="M316.53,5h-3.59V3.15h9.38V5h-3.59V15.58h-2.2Z"/><path class="a" d="M337.18,5h-3.59V3.15H343V5h-3.59V15.58h-2.21Z"/><path class="a" d="M355.27,15.58H353L357,3.15h2.58l4.05,12.43h-2.24l-1-3.36h-4.18Zm4.64-5.09L359.47,9c-.2-.66-.39-1.33-.57-2s-.36-1.38-.53-2.08h-.08l-.54,2.08c-.18.69-.38,1.37-.58,2l-.44,1.52ZM355.54,0h2.39l1.6,2.2h-1.77Z"/></svg>